<svg width="239" height="198" viewBox="0 0 239 198" fill="none" xmlns="http://www.w3.org/2000/svg">
<g clip-path="url(#clip0_107_189)">
<path d="M189 49.655H142.995C115.381 49.655 92.9949 72.0408 92.9949 99.655V145.111C92.9949 172.725 115.381 195.111 142.995 195.111H189C216.614 195.111 239 172.725 239 145.111V99.655C239 72.0407 216.614 49.655 189 49.655Z" fill="url(#paint0_linear_107_189)"/>
<path fill-rule="evenodd" clip-rule="evenodd" d="M165.997 65.9738C134.723 65.9738 109.376 91.2285 109.376 122.382C109.376 153.536 134.726 178.791 165.997 178.791C174.942 178.804 183.761 176.697 191.726 172.643L206.75 177.477L207.115 161.157C216.722 151.049 222.616 137.402 222.616 122.382C222.616 91.2252 197.265 65.9738 165.994 65.9738" fill="#181A1F"/>
<path fill-rule="evenodd" clip-rule="evenodd" d="M153.123 67.4393C128.055 73.2466 109.38 95.6386 109.38 122.379C109.369 130.787 111.252 139.091 114.89 146.678C138.309 133.509 154.124 108.487 154.124 79.7872C154.123 75.6512 153.79 71.522 153.127 67.4393" fill="#14161A"/>
<path d="M96.0052 3.01691H50C22.3858 3.01691 0 25.4027 0 53.0169V98.4727C0 126.087 22.3857 148.473 50 148.473H96.0051C123.619 148.473 146.005 126.087 146.005 98.4727V53.0169C146.005 25.4027 123.619 3.01691 96.0052 3.01691Z" fill="url(#paint1_linear_107_189)"/>
<path fill-rule="evenodd" clip-rule="evenodd" d="M73.0026 19.3365C104.277 19.3365 129.624 44.5912 129.624 75.7448C129.624 106.898 104.274 132.153 73.0026 132.153C64.0582 132.167 55.239 130.06 47.2737 126.006L32.2466 130.839L31.8814 114.52C22.2742 104.411 16.3812 90.7643 16.3812 75.7448C16.3812 44.588 41.7313 19.3365 73.0026 19.3365Z" fill="#181A1F"/>
<path fill-rule="evenodd" clip-rule="evenodd" d="M160.519 126.071H173.212L166.845 105.648L160.519 126.071ZM176.618 136.992H157.112L153.707 147.993H138.5L160.159 89.1714H173.531L195.36 148H180.064L176.618 136.992Z" fill="white"/>
<path d="M83.9607 171.587C59.0895 174.494 46.3306 168.827 39.4962 149.719C38.6619 174.514 58.4253 194.814 85.9783 191.414L86.6481 197.999L106.557 177.718L83.2837 164.928L83.9607 171.587Z" fill="#181A1F"/>
<path d="M155.037 26.4126C179.909 23.5089 192.668 29.1726 199.501 48.281C200.335 23.4865 180.571 3.18554 153.019 6.58469L152.348 0L132.439 20.2816L155.712 33.0712L155.037 26.4126Z" fill="#181A1F"/>
<path d="M68.1046 65.36C68.1046 62.8414 70.2803 60.8 72.9646 60.8C75.649 60.8 77.8246 62.8414 77.8246 65.36V68.4C77.8246 65.8814 80.0003 63.84 82.6846 63.84C85.369 63.84 87.5446 65.8814 87.5446 68.4V72.96V71.3457C87.5446 68.8271 89.7203 66.7857 92.4046 66.7857C95.089 66.7857 97.2646 68.8271 97.2646 71.3457V86.64C97.2646 99.2317 86.3847 109.44 72.9646 109.44C66.2546 109.44 60.1796 106.888 55.7813 102.763L38.3906 82.2153C36.8597 80.4065 37.0185 77.8088 38.7583 76.1748C40.6505 74.3994 43.7172 74.3994 45.6093 76.1748L52.4538 82.5968C54.6424 84.6503 58.383 83.1957 58.383 80.2925V72.96V47.12C58.383 44.6014 60.5587 42.56 63.243 42.56C65.9274 42.56 68.103 44.6014 68.103 47.12V68.4" stroke="white" stroke-width="4" stroke-miterlimit="10" stroke-linecap="round" stroke-linejoin="round"/>
</g>
<defs>
<linearGradient id="paint0_linear_107_189" x1="174.375" y1="199.607" x2="159.261" y2="59.2283" gradientUnits="userSpaceOnUse">
<stop stop-color="#7FA9D7" stop-opacity="0.52"/>
<stop offset="1" stop-color="#7FA9D7"/>
</linearGradient>
<linearGradient id="paint1_linear_107_189" x1="64.5947" y1="-1.50404" x2="78.7118" y2="129.184" gradientUnits="userSpaceOnUse">
<stop stop-color="#EBD5F3" stop-opacity="0.96"/>
<stop offset="0.97" stop-color="#EBC8F9"/>
</linearGradient>
<clipPath id="clip0_107_189">
<rect width="239" height="198" fill="white"/>
</clipPath>
</defs>
</svg>
